<svg xmlns="http://www.w3.org/2000/svg" xmlns:xlink="http://www.w3.org/1999/xlink" width="200" height="200" class="icon" p-id="1305" t="1620960881566" version="1.1" viewBox="0 0 1024 1024"><defs><style type="text/css"/></defs><path fill="#FC6E51" d="M618.624 275.776V42.958h-213.22v232.818c-112.194 42.91-170.546 151.592-170.546 278.854v447.712c0 11.774 9.542 21.33 21.314 21.33h511.672c11.774 0 21.3-9.556 21.3-21.33V554.63c0-127.262-58.34-235.944-170.52-278.854z" p-id="1306"/><path fill="#E6E9ED" d="M234.856 554.628v255.836h554.288V554.628c0-14.458-0.75-28.702-2.25-42.628H237.122a398.308 398.308 0 0 0-2.266 42.628z" p-id="1307"/><path fill="#FFF" d="M618.624 275.776V42.958h-42.66v232.818c112.18 42.91 170.582 151.592 170.582 278.854v447.712c0 11.774-9.558 21.33-21.364 21.33h42.66c11.774 0 21.3-9.556 21.3-21.33V554.63c0.002-127.262-58.338-235.944-170.518-278.854z" opacity=".2" p-id="1308"/><path fill="#E9573F" d="M639.926 85.586c0 11.742-9.586 21.33-21.3 21.33H405.404c-11.726 0-21.314-9.588-21.314-21.33v-63.96c0-11.712 9.588-21.298 21.314-21.298h213.222c11.714 0 21.3 9.586 21.3 21.298v63.96z" p-id="1309"/><path fill="#ED5564" d="M420.472 633.672a21.224 21.224 0 0 0 6.262-15.084c0-11.774-9.556-21.33-21.33-21.33-5.886 0-11.21 2.404-15.084 6.246l-27.544 27.576-27.56-27.576a21.34 21.34 0 0 0-15.084-6.246c-11.774 0-21.314 9.556-21.314 21.33 0 5.902 2.388 11.21 6.246 15.084l27.56 27.544-27.56 27.576a21.22 21.22 0 0 0-6.246 15.084c0 11.774 9.542 21.298 21.314 21.298 5.886 0 11.228-2.374 15.084-6.246l27.56-27.544 27.544 27.544a21.24 21.24 0 0 0 15.084 6.246c11.774 0 21.33-9.526 21.33-21.298 0-5.902-2.388-11.242-6.262-15.084l-27.56-27.576 27.56-27.544zM569.718 633.672a21.202 21.202 0 0 0 6.246-15.084c0-11.774-9.554-21.33-21.296-21.33a21.306 21.306 0 0 0-15.102 6.246l-27.56 27.576-27.56-27.576a21.312 21.312 0 0 0-15.084-6.246c-11.774 0-21.314 9.556-21.314 21.33 0 5.902 2.39 11.21 6.246 15.084l27.56 27.544-27.56 27.576a21.23 21.23 0 0 0-6.246 15.084c0 11.774 9.542 21.298 21.314 21.298 5.902 0 11.228-2.374 15.084-6.246l27.56-27.544 27.56 27.544a21.172 21.172 0 0 0 15.102 6.246c11.742 0 21.296-9.526 21.296-21.298 0-5.902-2.372-11.242-6.246-15.084l-27.558-27.576 27.558-27.544zM718.938 688.792l-27.542-27.576 27.542-27.544a21.22 21.22 0 0 0 6.246-15.084c0-11.774-9.524-21.33-21.3-21.33a21.332 21.332 0 0 0-15.082 6.246l-27.578 27.576-27.542-27.576c-3.872-3.842-9.18-6.246-15.054-6.246-11.804 0-21.36 9.556-21.36 21.33 0 5.902 2.406 11.21 6.278 15.084l27.542 27.544-27.542 27.576a21.19 21.19 0 0 0-6.278 15.084c0 11.774 9.554 21.298 21.36 21.298 5.876 0 11.184-2.374 15.054-6.246l27.542-27.544 27.578 27.544a21.2 21.2 0 0 0 15.082 6.246c11.778 0 21.3-9.526 21.3-21.298 0-5.902-2.376-11.242-6.246-15.084z" p-id="1310"/></svg>